<?xml version="1.0" standalone="no"?>
<!DOCTYPE svg PUBLIC "-//W3C//DTD SVG 20010904//EN"
 "http://www.w3.org/TR/2001/REC-SVG-20010904/DTD/svg10.dtd">
<svg version="1.0" xmlns="http://www.w3.org/2000/svg"
 width="700.000000pt" height="700.000000pt" viewBox="0 0 700.000000 700.000000"
 preserveAspectRatio="xMidYMid meet">
<metadata>
Created by potrace 1.14, written by Peter Selinger 2001-2017
</metadata>
<g transform="translate(0.000000,700.000000) scale(0.100000,-0.100000)"
fill="#000000" stroke="none">
<path d="M1584 5231 c-31 -19 -45 -45 -60 -116 -7 -28 -18 -46 -43 -62 l-34
-23 -723 0 -724 0 0 -218 0 -218 718 0 c577 0 725 -3 751 -13 32 -14 61 -55
61 -87 0 -34 22 -79 49 -99 26 -19 44 -20 1036 -21 988 -1 1011 0 1047 19 36
20 46 36 55 92 7 45 33 83 66 96 23 10 390 13 1621 13 l1591 1 3 218 2 217
-1598 0 -1599 0 -34 23 c-25 16 -36 34 -43 62 -15 71 -29 97 -60 116 -30 18
-70 19 -1041 19 -971 0 -1011 -1 -1041 -19z"/>
<path d="M0 2187 l0 -437 1609 2 1609 3 26 24 c14 13 28 40 31 60 11 64 33
101 70 117 53 22 2022 21 2065 -1 35 -18 60 -62 60 -104 0 -20 11 -42 29 -63
l29 -33 736 -3 736 -2 -2 437 -3 438 -710 1 c-390 0 -723 -3 -739 -8 -42 -11
-65 -41 -76 -100 -11 -58 -40 -95 -82 -106 -21 -5 -1953 -8 -2025 -3 -24 2
-74 56 -78 86 -13 80 -29 105 -75 121 -14 4 -742 8 -1617 9 l-1593 0 0 -438z"/>
</g>
</svg>
