<svg xmlns="http://www.w3.org/2000/svg" width="320" height="320" viewBox="0 0 320 320"><g transform="translate(0 80)"><path d="M320,90v20H175a5.00181,5.00181,0,0,0-5,5,5.00181,5.00181,0,0,1-5,5H75a5.00181,5.00181,0,0,1-5-5,5.00181,5.00181,0,0,0-5-5H0V90H65a5.00181,5.00181,0,0,0,5-5,5.00181,5.00181,0,0,1,5-5h90a5.00181,5.00181,0,0,1,5,5,5.00181,5.00181,0,0,0,5,5Z" transform="translate(0 -80)" fill="currentColor"/><path d="M320,200v40H255a5.00181,5.00181,0,0,1-5-5,5.00181,5.00181,0,0,0-5-5H155a5.00181,5.00181,0,0,0-5,5,5.00181,5.00181,0,0,1-5,5H0V200H145a5.00181,5.00181,0,0,1,5,5,5.00181,5.00181,0,0,0,5,5h90a5.00181,5.00181,0,0,0,5-5,5.00181,5.00181,0,0,1,5-5Z" transform="translate(0 -80)" fill="currentColor"/></g></svg>
