<svg xmlns="http://www.w3.org/2000/svg" width="320" height="320" viewBox="0 0 320 320"><path d="M320,0V90H175a5.00181,5.00181,0,0,1-5-5,5.00181,5.00181,0,0,0-5-5H75a5.00181,5.00181,0,0,0-5,5,5.00181,5.00181,0,0,1-5,5H0V0Z" fill="currentColor"/><path d="M320,110v90H255a5.00181,5.00181,0,0,0-5,5,5.00181,5.00181,0,0,1-5,5H155a5.00181,5.00181,0,0,1-5-5,5.00181,5.00181,0,0,0-5-5H0V110H65a5.00181,5.00181,0,0,1,5,5,5.00181,5.00181,0,0,0,5,5h90a5.00181,5.00181,0,0,0,5-5,5.00181,5.00181,0,0,1,5-5Z" fill="currentColor"/><path d="M255,240h65v80H0V240H145a5.00181,5.00181,0,0,0,5-5,5.00181,5.00181,0,0,1,5-5h90a5.00181,5.00181,0,0,1,5,5A5.00181,5.00181,0,0,0,255,240Z" fill="currentColor"/></svg>
